<svg id="Calque_1" data-name="Calque 1" xmlns="http://www.w3.org/2000/svg" viewBox="0 0 226.77 226.77"><defs><style>.cls-1{fill:#1d1d1b;}</style></defs><title>m</title><path class="cls-1" d="M138.51,85.66h-.08c-5.16,0-9.4,3.47-11.63,9.32-2.25-5.15-6.28-8.44-11.22-9.17V60.58h-3.53V85.73c-5.26.51-9.56,3.86-11.91,9.25-2.23-5.85-6.47-9.3-11.63-9.32h-.08c-8.71,0-13.27,9.48-13.27,18.78v10.49h3.6V104.44c0-13.43,6.79-14.89,9.71-14.9,8.77,0,9.71,10.43,9.71,14.9v10.49h3.61V104.44a21.32,21.32,0,0,1,2.26-9.75,10,10,0,0,1,8-5.42v38.67h3.53V89.36a10,10,0,0,1,7.31,5.33,21.32,21.32,0,0,1,2.26,9.75v10.49h3.61V104.44c0-13.43,6.79-14.89,9.71-14.9,8.76,0,9.71,10.43,9.71,14.9v10.49h3.6V104.44C151.78,95.14,147.22,85.7,138.51,85.66Z"/><path class="cls-1" d="M76.33,152.92a2.85,2.85,0,0,1,2.16-1.1,2,2,0,0,1,2.09,1.29A2.92,2.92,0,0,1,83,151.82c1.61,0,2.38.69,2.38,3.44v6.55H84.1v-6.26c0-1.73-.13-2.57-1.34-2.57s-1.69,1.09-1.88,1.41v7.42H79.56v-6.45c0-1.73-.15-2.38-1.35-2.38-1,0-1.88,1.41-1.88,1.41v7.42H75v-9.7h.63Z"/><path class="cls-1" d="M96.66,157.13v.32H90.3c.12,2.53,1.14,3.49,2.74,3.49a1.85,1.85,0,0,0,2-1.7h1.34A3.13,3.13,0,0,1,93,162.1c-2.12,0-4.11-1.26-4.11-5.14s1.93-5.14,4.11-5.14C96.21,151.82,96.66,155.06,96.66,157.13Zm-6.36-.86h4.93c0-1.48-.48-3.29-2.19-3.29S90.49,154,90.3,156.27Z"/><path class="cls-1" d="M106.14,161a3.22,3.22,0,0,1-2.43,1.09c-2.1,0-4-1.32-4-5.14s2-5.14,4.07-5.14a2.9,2.9,0,0,1,2.41,1.09v-5.56h1.32v14.46h-.67Zm0-6.3a2.61,2.61,0,0,0-2.41-1.73c-1.82,0-2.72,1.7-2.72,4,0,2.7.9,4,2.72,4a2.52,2.52,0,0,0,2.41-1.55Z"/><path d="M127.38,146.72h-.71a19.66,19.66,0,0,1,0,17.72h.71a17,17,0,0,0,0-17.72Z"/><path d="M112.76,146.72h.71a19.66,19.66,0,0,0,0,17.72h-.71a17,17,0,0,1,0-17.72Z"/><path class="cls-1" d="M117.91,152.92a4.3,4.3,0,0,1,2.58-1.1c2.08,0,3.53.88,3.53,3.44v6.55H122.7v-6.26c0-1.54-.54-2.57-2.21-2.57a3.46,3.46,0,0,0-2.58,1.41v7.42h-1.32V147.35h1.32Z"/><path class="cls-1" d="M139.93,152.11l-3.07,8.56-3-8.56h-1.48l3.84,10.36c-.64,1.61-1,1.7-1.78,1.7a5.76,5.76,0,0,1-1.06-.11v1.12a3.91,3.91,0,0,0,1.06.15c1.17,0,2.06-.17,3.31-3.5l3.64-9.72Z"/><path class="cls-1" d="M143.81,157c0-3.83,1.95-5.14,4.05-5.14s4.07,1.31,4.07,5.14-2,5.14-4.07,5.14S143.81,160.78,143.81,157Zm1.36,0c0,2.72.93,4,2.69,4s2.71-1.26,2.71-4-.94-4-2.71-4S145.17,154.24,145.17,157Z"/></svg>